<svg width="59" height="56" fill="none" xmlns="http://www.w3.org/2000/svg"><rect y="9.723" width="59" height="46" rx="20" fill="#F5F6FB"/><path d="M57.993 39.084C56.32 25.666 43.8 23.679 40.267 23.385V11.2c0-.084-.118-8.4-10.267-8.4-10.15 0-10.267 8.316-10.267 8.4v12.186c-3.533.293-16.048 2.28-17.726 15.698 0 .019-.007.093-.007.116v3.733c0 .516.418.934.933.934H7.6v1.866H4.8a.933.933 0 0 0-.933.934c0 2.259 1.365 6.533 6.533 6.533s6.533-4.274 6.533-6.534a.933.933 0 0 0-.933-.933h-2.8v-1.866h14v1.866h-2.8a.933.933 0 0 0-.933.934c0 2.259 1.365 6.533 6.533 6.533s6.533-4.274 6.533-6.534a.933.933 0 0 0-.933-.933h-2.8v-1.866h14v1.866H44a.933.933 0 0 0-.933.934c0 2.259 1.365 6.533 6.533 6.533s6.533-4.274 6.533-6.534a.933.933 0 0 0-.933-.933h-2.8v-1.866h4.667a.933.933 0 0 0 .933-.934V39.2c0-.022 0-.094-.007-.116ZM21.6 11.2c0-.267.093-6.534 8.4-6.534 8.249 0 8.4 6.27 8.4 6.534v12.133h-1.867v-5.6h-1.866v5.6H21.6V11.2Zm-8.773 15.81a21.66 21.66 0 0 1 7.84-1.81h18.666a21.66 21.66 0 0 1 7.84 1.81 14.523 14.523 0 0 1 8.808 11.256H4.02a14.523 14.523 0 0 1 8.808-11.256ZM10.4 51.333A4.281 4.281 0 0 1 5.831 47.6h9.133a4.304 4.304 0 0 1-4.564 3.733Zm.933-5.6H9.467v-1.866h1.866v1.866ZM30 51.333a4.281 4.281 0 0 1-4.569-3.733h9.133A4.304 4.304 0 0 1 30 51.333Zm.933-5.6h-1.866v-1.866h1.866v1.866Zm18.667 5.6a4.28 4.28 0 0 1-4.573-3.733h9.137a4.304 4.304 0 0 1-4.564 3.733Zm.933-5.6h-1.866v-1.866h1.866v1.866Zm5.6-3.733H3.867v-1.867h52.266V42Z" fill="#071F41"/><path d="M30 27.067a4.667 4.667 0 1 0 0 9.334 4.667 4.667 0 0 0 0-9.334Zm0 7.467a2.8 2.8 0 1 1 0-5.6 2.8 2.8 0 0 1 0 5.6Z" fill="#071F41"/><path d="M31.867 31.733a1.867 1.867 0 1 1-3.734 0 1.867 1.867 0 0 1 3.734 0ZM34.667 14h1.866v1.867h-1.866V14ZM34.667 11.2v.933h1.866V11.2c0-.478-.187-4.667-6.533-4.667V8.4c4.33 0 4.667 2.146 4.667 2.8ZM21.6 30.8h1.867v1.866H21.6V30.8ZM17.867 30.8h1.866v1.866h-1.866V30.8ZM36.533 30.8H38.4v1.866h-1.867V30.8ZM40.267 30.8h1.866v1.866h-1.866V30.8Z" fill="#071F41"/></svg>