<svg aria-hidden="true" focusable="true" style="position: absolute; width: 0; height: 0; overflow: hidden;" version="1.1" xmlns="http://www.w3.org/2000/svg">
    <defs>
        <symbol id="calculator" viewBox="0 0 20 20">
            <path d="M17.0312 0H2.96875C1.99949 0 1.21094 0.788555 1.21094 1.75781V18.2422C1.21094 19.2114 1.99949 20 2.96875 20H17.0312C18.0005 20 18.7891 19.2114 18.7891 18.2422V1.75781C18.7891 0.788555 18.0005 0 17.0312 0ZM17.6172 18.2422C17.6172 18.5653 17.3543 18.8281 17.0312 18.8281H2.96875C2.64566 18.8281 2.38281 18.5653 2.38281 18.2422V1.75781C2.38281 1.43473 2.64566 1.17188 2.96875 1.17188H17.0312C17.3543 1.17188 17.6172 1.43473 17.6172 1.75781V18.2422Z" fill="#1D2E4A"/>
            <path d="M15.8594 2.34375H4.14062C3.81703 2.34375 3.55469 2.60609 3.55469 2.92969V7.69531C3.55469 8.01891 3.81703 8.28125 4.14062 8.28125H15.8594C16.183 8.28125 16.4453 8.01891 16.4453 7.69531V2.92969C16.4453 2.60609 16.183 2.34375 15.8594 2.34375ZM15.2734 7.10938H4.72656V3.51562H15.2734V7.10938Z" fill="#1D2E4A"/>
            <path d="M6.48438 9.45312H4.14062C3.81703 9.45312 3.55469 9.71547 3.55469 10.0391V12.3828C3.55469 12.7064 3.81703 12.9688 4.14062 12.9688H6.48438C6.80797 12.9688 7.07031 12.7064 7.07031 12.3828V10.0391C7.07031 9.71547 6.80797 9.45312 6.48438 9.45312ZM5.89844 11.7969H4.72656V10.625H5.89844V11.7969Z" fill="#1D2E4A"/>
            <path d="M6.48438 14.1406H4.14062C3.81703 14.1406 3.55469 14.403 3.55469 14.7266V17.0703C3.55469 17.3939 3.81703 17.6562 4.14062 17.6562H6.48438C6.80797 17.6562 7.07031 17.3939 7.07031 17.0703V14.7266C7.07031 14.403 6.80797 14.1406 6.48438 14.1406ZM5.89844 16.4844H4.72656V15.3125H5.89844V16.4844Z" fill="#1D2E4A"/>
            <path d="M11.1719 9.45312H8.82812C8.50453 9.45312 8.24219 9.71547 8.24219 10.0391V12.3828C8.24219 12.7064 8.50453 12.9688 8.82812 12.9688H11.1719C11.4955 12.9688 11.7578 12.7064 11.7578 12.3828V10.0391C11.7578 9.71547 11.4955 9.45312 11.1719 9.45312ZM10.5859 11.7969H9.41406V10.625H10.5859V11.7969Z" fill="#1D2E4A"/>
            <path d="M11.1719 14.1406H8.82812C8.50453 14.1406 8.24219 14.403 8.24219 14.7266V17.0703C8.24219 17.3939 8.50453 17.6562 8.82812 17.6562H11.1719C11.4955 17.6562 11.7578 17.3939 11.7578 17.0703V14.7266C11.7578 14.403 11.4955 14.1406 11.1719 14.1406ZM10.5859 16.4844H9.41406V15.3125H10.5859V16.4844Z" fill="#1D2E4A"/>
            <path d="M15.8594 9.45312H13.5156C13.192 9.45312 12.9297 9.71547 12.9297 10.0391V17.0703C12.9297 17.3939 13.192 17.6562 13.5156 17.6562H15.8594C16.183 17.6562 16.4453 17.3939 16.4453 17.0703V10.0391C16.4453 9.71547 16.183 9.45312 15.8594 9.45312ZM15.2734 16.4844H14.1016V10.625H15.2734V16.4844Z" fill="#1D2E4A"/>
        </symbol >
        <symbol id="calendar" viewBox="0 0 20 20">
            <path d="M17.4754 2.0669H16.1634V1.74585C16.1634 1.42226 15.9011 1.15991 15.5775 1.15991C15.2539 1.15991 14.9916 1.42226 14.9916 1.74585V2.0669H13.3747V1.74585C13.3747 1.42226 13.1123 1.15991 12.7887 1.15991C12.4652 1.15991 12.2028 1.42226 12.2028 1.74585V2.0669H10.5859V1.74585C10.5859 1.42226 10.3236 1.15991 10 1.15991C9.67641 1.15991 9.41406 1.42226 9.41406 1.74585V2.0669H7.79719V1.74585C7.79719 1.42226 7.53484 1.15991 7.21125 1.15991C6.88766 1.15991 6.62531 1.42226 6.62531 1.74585V2.0669H5.00844V1.74585C5.00844 1.42226 4.74609 1.15991 4.4225 1.15991C4.09891 1.15991 3.83656 1.42226 3.83656 1.74585V2.0669H2.52461C1.13254 2.0669 0 3.19944 0 4.59147V16.3155C0 17.7076 1.13254 18.8401 2.52461 18.8401H17.4754C18.8675 18.8401 20 17.7075 20 16.3155V4.59147C20 3.19944 18.8675 2.0669 17.4754 2.0669ZM18.8281 16.3155C18.8281 17.0614 18.2213 17.6682 17.4754 17.6682H2.52461C1.77871 17.6682 1.17188 17.0614 1.17188 16.3155V6.73233H18.8281V16.3155ZM18.8281 5.56046H1.17188V4.59147C1.17188 3.84562 1.77871 3.23878 2.52461 3.23878H3.83656V3.4653C3.83656 3.7889 4.09891 4.05124 4.4225 4.05124C4.74609 4.05124 5.00844 3.7889 5.00844 3.4653V3.23878H6.62531V3.4653C6.62531 3.7889 6.88766 4.05124 7.21125 4.05124C7.53484 4.05124 7.79719 3.7889 7.79719 3.4653V3.23878H9.41406V3.4653C9.41406 3.7889 9.67641 4.05124 10 4.05124C10.3236 4.05124 10.5859 3.7889 10.5859 3.4653V3.23878H12.2028V3.4653C12.2028 3.7889 12.4652 4.05124 12.7887 4.05124C13.1123 4.05124 13.3747 3.7889 13.3747 3.4653V3.23878H14.9916V3.4653C14.9916 3.7889 15.2539 4.05124 15.5775 4.05124C15.9011 4.05124 16.1634 3.7889 16.1634 3.4653V3.23878H17.4754C18.2213 3.23878 18.8281 3.84562 18.8281 4.59147V5.56046Z" fill="#52555F"/>
            <path d="M6.5318 7.98157H4.21973C3.89613 7.98157 3.63379 8.24391 3.63379 8.5675V10.9596C3.63379 11.2832 3.89613 11.5456 4.21973 11.5456H6.5318C6.85539 11.5456 7.11773 11.2832 7.11773 10.9596V8.5675C7.11773 8.24391 6.85543 7.98157 6.5318 7.98157ZM5.94586 10.3737H4.80566V9.15344H5.94586V10.3737Z" fill="#52555F"/>
            <path d="M11.1561 7.98157H8.84399C8.5204 7.98157 8.25806 8.24391 8.25806 8.5675V10.9596C8.25806 11.2832 8.5204 11.5456 8.84399 11.5456H11.1561C11.4797 11.5456 11.742 11.2832 11.742 10.9596V8.5675C11.742 8.24391 11.4797 7.98157 11.1561 7.98157ZM10.5701 10.3737H9.42993V9.15344H10.5701V10.3737Z" fill="#52555F"/>
            <path d="M15.7802 7.98157H13.4681C13.1445 7.98157 12.8822 8.24391 12.8822 8.5675V10.9596C12.8822 11.2832 13.1445 11.5456 13.4681 11.5456H15.7802C16.1038 11.5456 16.3661 11.2832 16.3661 10.9596V8.5675C16.3661 8.24391 16.1038 7.98157 15.7802 7.98157ZM15.1943 10.3737H14.0541V9.15344H15.1943V10.3737Z" fill="#52555F"/>
            <path d="M6.5318 12.5258H4.21973C3.89613 12.5258 3.63379 12.7881 3.63379 13.1117V15.5038C3.63379 15.8274 3.89613 16.0898 4.21973 16.0898H6.5318C6.85539 16.0898 7.11773 15.8274 7.11773 15.5038V13.1117C7.11773 12.7881 6.85543 12.5258 6.5318 12.5258ZM5.94586 14.9179H4.80566V13.6977H5.94586V14.9179Z" fill="#52555F"/>
            <path d="M11.1561 12.5258H8.84399C8.5204 12.5258 8.25806 12.7881 8.25806 13.1117V15.5038C8.25806 15.8274 8.5204 16.0898 8.84399 16.0898H11.1561C11.4797 16.0898 11.742 15.8274 11.742 15.5038V13.1117C11.742 12.7881 11.4797 12.5258 11.1561 12.5258ZM10.5701 14.9179H9.42993V13.6977H10.5701V14.9179Z" fill="#52555F"/>
            <path d="M15.7802 12.5258H13.4681C13.1445 12.5258 12.8822 12.7881 12.8822 13.1117V15.5038C12.8822 15.8274 13.1445 16.0898 13.4681 16.0898H15.7802C16.1038 16.0898 16.3661 15.8274 16.3661 15.5038V13.1117C16.3661 12.7881 16.1038 12.5258 15.7802 12.5258ZM15.1943 14.9179H14.0541V13.6977H15.1943V14.9179Z" fill="#52555F"/>
        </symbol >
        <symbol id="close" viewBox="0 0 14 14">
            <path d="M1 1L13 13" stroke="#52555F" stroke-width="2"/>
            <path d="M1 13L13 0.999999" stroke="#52555F" stroke-width="2"/>
        </symbol >
        <symbol id="delete" viewBox="0 0 18 18">
            <path d="M16.3081 4.02333L15.9106 2.832C15.7593 2.37827 15.3362 2.07339 14.858 2.07339H11.5177V0.985886C11.5177 0.442337 11.0758 0 10.5324 0H7.47355C6.93027 0 6.48821 0.442337 6.48821 0.985886V2.07339H3.14809C2.66977 2.07339 2.24666 2.37827 2.09533 2.832L1.6979 4.02333C1.6074 4.29456 1.65326 4.59489 1.82039 4.82684C1.98752 5.05879 2.25792 5.19736 2.54384 5.19736H2.95926L3.8736 16.5038C3.94158 17.3427 4.65349 18 5.49463 18H12.6969C13.5379 18 14.2499 17.3427 14.3178 16.5037L15.2321 5.19736H15.4621C15.748 5.19736 16.0184 5.05879 16.1856 4.82698C16.3527 4.59503 16.3986 4.29456 16.3081 4.02333ZM7.5429 1.05469H10.4631V2.07339H7.5429V1.05469ZM13.2665 16.4187C13.2426 16.7141 12.9924 16.9453 12.6969 16.9453H5.49463C5.1991 16.9453 4.94889 16.7141 4.92499 16.4187L4.01738 5.19736H14.174L13.2665 16.4187ZM2.77002 4.14267L3.09591 3.16571C3.10332 3.14319 3.12433 3.12808 3.14809 3.12808H14.858C14.8818 3.12808 14.9026 3.14319 14.9102 3.16571L15.2361 4.14267H2.77002Z" fill="#52555F"/>
            <path d="M11.5846 16.3811C11.5939 16.3816 11.6031 16.3818 11.6125 16.3818C11.8911 16.3818 12.124 16.1634 12.1386 15.8819L12.6338 6.37568C12.6489 6.08482 12.4253 5.83667 12.1346 5.82156C11.843 5.80604 11.5957 6.02989 11.5805 6.32075L11.0854 15.827C11.0703 16.1178 11.2937 16.366 11.5846 16.3811Z" fill="#52555F"/>
            <path d="M5.89099 15.8835C5.90637 16.1646 6.139 16.3821 6.41709 16.3821C6.4267 16.3821 6.43659 16.3819 6.44634 16.3813C6.73707 16.3655 6.95995 16.117 6.94416 15.8261L6.42547 6.31991C6.40968 6.02905 6.16111 5.80616 5.87025 5.82209C5.57952 5.83789 5.35664 6.08645 5.37243 6.37731L5.89099 15.8835Z" fill="#52555F"/>
            <path d="M9.00891 16.3822C9.30019 16.3822 9.53625 16.1461 9.53625 15.8548V6.34863C9.53625 6.05736 9.30019 5.82129 9.00891 5.82129C8.71764 5.82129 8.48157 6.05736 8.48157 6.34863V15.8548C8.48157 16.1461 8.71764 16.3822 9.00891 16.3822Z" fill="#52555F"/>
        </symbol >
        <symbol id="goArrow" viewBox="0 0 18 12">
            <path d="M18 5H3.83L7.41 1.41L6 0L0 6L6 12L7.41 10.59L3.83 7H18V5Z"/>
        </symbol >
        <symbol id="google" viewBox="0 0 18 18">
            <path d="M17.6589 7.33402C17.737 7.33402 17.8003 7.39888 17.8003 7.47889V9C17.8003 9.56932 17.7487 10.126 17.6497 10.666C16.8835 14.8604 13.2752 18.0303 8.95014 17.9998C4.09707 17.9655 0.213154 13.9498 0.223899 8.97972C0.234576 4.01857 4.16518 0 9.0121 0C11.3867 0 13.5413 0.964758 15.1232 2.53188C15.1803 2.58845 15.1818 2.68168 15.1256 2.7392L13.0242 4.89115C12.9701 4.94656 12.8827 4.948 12.8273 4.89396C11.8345 3.92614 10.4912 3.33197 9.0121 3.33197C5.95781 3.33197 3.49831 5.83284 3.47757 8.96066C3.45673 12.109 5.94271 14.668 9.0121 14.668C11.5025 14.668 13.6089 12.9832 14.3034 10.666H9.15357C9.07544 10.666 9.0121 10.6011 9.0121 10.5211V7.47886C9.0121 7.39884 9.07544 7.33398 9.15357 7.33398H17.6589V7.33402Z" fill="#2196F3"/>
            <path d="M17.6585 7.33398H16.5976C16.6757 7.33398 16.739 7.39885 16.739 7.47886V8.99997C16.739 9.56929 16.6874 10.126 16.5884 10.666C15.8575 14.6675 12.5397 17.7365 8.48071 17.9837C8.63602 17.9931 8.79235 17.9986 8.94979 17.9997C13.2749 18.0303 16.8832 14.8604 17.6493 10.666C17.7484 10.126 17.8 9.56929 17.8 8.99997V7.47883C17.8 7.39885 17.7366 7.33398 17.6585 7.33398Z" fill="#1E88E5"/>
            <path d="M3.98457 6.62632L1.31555 4.65138C2.81292 1.87787 5.69834 0 9.01171 0C11.3864 0 13.5409 0.964758 15.1228 2.53188C15.1799 2.58845 15.1814 2.68168 15.1252 2.7392L13.0238 4.89115C12.9698 4.94645 12.8824 4.94817 12.8271 4.89424C11.8343 3.92625 10.4909 3.332 9.01171 3.332C6.78266 3.332 4.86126 4.68144 3.98457 6.62632Z" fill="#F44336"/>
            <path d="M3.21411 6.05622L3.98463 6.62635C4.78484 4.85117 6.45556 3.57268 8.43601 3.36297C8.45091 3.36132 8.46522 3.35931 8.48039 3.35784C8.30611 3.34089 8.12948 3.33203 7.95083 3.33203C5.9372 3.33203 4.18229 4.41917 3.21411 6.05622Z" fill="#E53935"/>
            <path d="M14.0618 2.53188C14.1189 2.58845 14.1204 2.68168 14.0642 2.73923L12.3586 4.4859C12.522 4.61317 12.6784 4.74929 12.8269 4.894C12.8823 4.94803 12.9697 4.94659 13.0238 4.89118L15.1252 2.73923C15.1813 2.68168 15.1798 2.58848 15.1227 2.53188C13.5409 0.964758 11.3863 0 9.0117 0C8.83349 0 8.6567 0.00608203 8.48114 0.0168047C10.6452 0.148816 12.5986 1.08232 14.0618 2.53188Z" fill="#E53935"/>
            <path d="M15.4585 15.1164C13.8536 16.89 11.5591 18 9.01176 18C5.57109 18 2.59229 15.9751 1.14972 13.0252L3.87459 11.1129C4.69227 13.1965 6.68438 14.668 9.01176 14.668C10.4723 14.668 11.8006 14.0885 12.7895 13.1418L15.4585 15.1164Z" fill="#4CAF50"/>
            <path d="M3.87467 11.1129L3.07117 11.6768C4.0044 13.4572 5.8396 14.668 7.95087 14.668C8.12941 14.668 8.3059 14.659 8.48012 14.6421C6.38437 14.4375 4.62929 13.0359 3.87467 11.1129Z" fill="#43A047"/>
            <path d="M9.01181 18.0001C11.5592 18.0001 13.8537 16.89 15.4585 15.1165L14.8048 14.6328C13.2979 16.5534 11.0373 17.8275 8.48267 17.9837C8.65774 17.9944 8.83413 18.0001 9.01181 18.0001Z" fill="#43A047"/>
            <path d="M3.47711 8.99998C3.47711 9.74677 3.61821 10.4599 3.87461 11.1129L1.14971 13.0252C0.557017 11.8141 0.223511 10.4469 0.223511 8.99998C0.223511 7.42273 0.619599 5.94034 1.31559 4.65137L3.9846 6.6263C3.65889 7.3481 3.47711 8.15251 3.47711 8.99998Z" fill="#FFC107"/>
            <path d="M3.0711 11.6768L3.8746 11.1129C3.6182 10.4599 3.47711 9.74676 3.47711 8.99997C3.47711 8.15249 3.65888 7.34808 3.98459 6.62628L3.21408 6.05615C2.71373 6.90219 2.42334 7.89497 2.41627 8.96066C2.40975 9.94342 2.64754 10.8688 3.0711 11.6768Z" fill="#FFB300"/>
        </symbol >
        <symbol id="goToReport" viewBox="0 0 14 14">
            <path d="M0 4.2H3V14H0V4.2ZM5.6 0H8.4V14H5.6V0ZM11.2 8H14V14H11.2V8Z"/>
        </symbol >
        <symbol id="logo" viewBox="0 0 377 120">
            <path d="M30.1318 68.0059L22.96 75.875V95H5.47852V22.4844H22.96V54.459L29.0361 45.2451L44.6748 22.4844H66.29L41.7861 54.5586L66.29 95H45.5713L30.1318 68.0059ZM100.307 95C99.709 93.9043 99.1777 92.2939 98.7129 90.1689C95.625 94.0537 91.3086 95.9961 85.7637 95.9961C80.6836 95.9961 76.3672 94.4688 72.8145 91.4141C69.2617 88.3262 67.4854 84.458 67.4854 79.8096C67.4854 73.9658 69.6436 69.5498 73.96 66.5615C78.2764 63.5732 84.5518 62.0791 92.7861 62.0791H97.9658V59.2402C97.9658 54.293 95.8242 51.8193 91.541 51.8193C87.5566 51.8193 85.5645 53.7783 85.5645 57.6963H68.7803C68.7803 52.4834 70.9883 48.25 75.4043 44.9961C79.8535 41.7422 85.5146 40.1152 92.3877 40.1152C99.2607 40.1152 104.689 41.792 108.674 45.1455C112.658 48.499 114.7 53.0977 114.8 58.9414V82.7979C114.866 87.7451 115.63 91.5303 117.091 94.1533V95H100.307ZM89.7979 84.043C91.8896 84.043 93.6162 83.5947 94.9775 82.6982C96.3721 81.8018 97.3682 80.7891 97.9658 79.6602V71.0439H93.085C87.2412 71.0439 84.3193 73.667 84.3193 78.9131C84.3193 80.4404 84.834 81.6855 85.8633 82.6484C86.8926 83.5781 88.2041 84.043 89.7979 84.043ZM174.167 68.4541C174.167 76.8213 172.274 83.5117 168.489 88.5254C164.737 93.5059 159.657 95.9961 153.249 95.9961C148.302 95.9961 144.234 94.1865 141.047 90.5674V115.719H124.263V41.1113H139.951L140.449 46.0918C143.67 42.1074 147.903 40.1152 153.149 40.1152C159.79 40.1152 164.953 42.5723 168.639 47.4863C172.324 52.3672 174.167 59.0908 174.167 67.6572V68.4541ZM157.383 67.4082C157.383 57.8457 154.594 53.0645 149.016 53.0645C145.031 53.0645 142.375 54.4922 141.047 57.3477V78.5645C142.508 81.5527 145.197 83.0469 149.115 83.0469C154.461 83.0469 157.217 78.4316 157.383 69.2012V67.4082ZM213.712 89.1729C210.159 93.7217 205.361 95.9961 199.318 95.9961C193.408 95.9961 188.926 94.2861 185.871 90.8662C182.85 87.4131 181.339 82.4658 181.339 76.0244V41.1113H198.123V76.124C198.123 80.7393 200.364 83.0469 204.847 83.0469C208.698 83.0469 211.438 81.6689 213.064 78.9131V41.1113H229.948V95H214.21L213.712 89.1729ZM267.401 79.8594C267.401 78.4316 266.654 77.2861 265.16 76.4229C263.666 75.5596 260.827 74.6631 256.644 73.7334C252.46 72.8037 249.007 71.5918 246.284 70.0977C243.562 68.5703 241.486 66.7275 240.059 64.5693C238.631 62.4111 237.917 59.9375 237.917 57.1484C237.917 52.2012 239.959 48.1338 244.043 44.9463C248.127 41.7256 253.473 40.1152 260.08 40.1152C267.186 40.1152 272.896 41.7256 277.213 44.9463C281.529 48.167 283.688 52.4004 283.688 57.6465H266.854C266.854 53.3301 264.579 51.1719 260.03 51.1719C258.271 51.1719 256.793 51.6699 255.598 52.666C254.402 53.6289 253.805 54.8408 253.805 56.3018C253.805 57.7959 254.535 59.0078 255.996 59.9375C257.457 60.8672 259.781 61.6309 262.969 62.2285C266.189 62.8262 269.012 63.54 271.436 64.3701C279.537 67.1592 283.588 72.1562 283.588 79.3613C283.588 84.2754 281.396 88.2764 277.014 91.3643C272.664 94.4521 267.02 95.9961 260.08 95.9961C255.465 95.9961 251.348 95.166 247.729 93.5059C244.109 91.8457 241.287 89.5879 239.262 86.7324C237.236 83.877 236.224 80.8721 236.224 77.7178H251.912C251.979 80.208 252.809 82.0342 254.402 83.1963C255.996 84.3252 258.038 84.8896 260.528 84.8896C262.819 84.8896 264.529 84.4248 265.658 83.4951C266.82 82.5654 267.401 81.3535 267.401 79.8594ZM311.03 27.7139V41.1113H319.896V52.7656H311.03V77.4189C311.03 79.4443 311.396 80.8555 312.126 81.6523C312.856 82.4492 314.301 82.8477 316.459 82.8477C318.119 82.8477 319.514 82.748 320.643 82.5488V94.5518C317.621 95.5146 314.467 95.9961 311.18 95.9961C305.402 95.9961 301.136 94.6348 298.38 91.9121C295.624 89.1895 294.246 85.0557 294.246 79.5107V52.7656H287.373V41.1113H294.246V27.7139H311.03ZM356.9 95C356.303 93.9043 355.771 92.2939 355.307 90.1689C352.219 94.0537 347.902 95.9961 342.357 95.9961C337.277 95.9961 332.961 94.4688 329.408 91.4141C325.855 88.3262 324.079 84.458 324.079 79.8096C324.079 73.9658 326.237 69.5498 330.554 66.5615C334.87 63.5732 341.146 62.0791 349.38 62.0791H354.56V59.2402C354.56 54.293 352.418 51.8193 348.135 51.8193C344.15 51.8193 342.158 53.7783 342.158 57.6963H325.374C325.374 52.4834 327.582 48.25 331.998 44.9961C336.447 41.7422 342.108 40.1152 348.981 40.1152C355.854 40.1152 361.283 41.792 365.268 45.1455C369.252 48.499 371.294 53.0977 371.394 58.9414V82.7979C371.46 87.7451 372.224 91.5303 373.685 94.1533V95H356.9ZM346.392 84.043C348.483 84.043 350.21 83.5947 351.571 82.6982C352.966 81.8018 353.962 80.7891 354.56 79.6602V71.0439H349.679C343.835 71.0439 340.913 73.667 340.913 78.9131C340.913 80.4404 341.428 81.6855 342.457 82.6484C343.486 83.5781 344.798 84.043 346.392 84.043Z" fill="black"/>
            <rect x="257" y="28" width="8" height="13" fill="black"/>
            <rect x="257" y="95" width="8" height="13" fill="black"/>
        </symbol >
        <symbol id="logo-tablet" viewBox="0 0 307 78">
            <path fill-rule="evenodd" clip-rule="evenodd" d="M14.5528 44.4462L20.5232 37.8954L33.3761 60.3673H50.6239L30.2251 26.7009L50.6239 0H32.6298L19.6111 18.9477L14.5528 26.618V0H0V60.3673H14.5528V44.4462ZM77.6151 56.3456C78.002 58.1146 78.4443 59.4551 78.9418 60.3673H92.9142V59.6624C91.698 57.4788 91.0623 54.3278 91.007 50.2093V30.3495C90.9241 25.4847 89.2242 21.6565 85.9073 18.8648C82.5904 16.0731 78.0711 14.6772 72.3495 14.6772C66.6279 14.6772 61.9152 16.0316 58.2113 18.7404C54.5351 21.4492 52.697 24.9734 52.697 29.313H66.6694C66.6694 26.0514 68.3278 24.4206 71.6447 24.4206C75.2103 24.4206 76.9932 26.4798 76.9932 30.5983V32.9615H72.6812C65.8263 32.9615 60.6022 34.2054 57.0089 36.693C53.4156 39.1807 51.619 42.8569 51.619 47.7217C51.619 51.5914 53.0978 54.8115 56.0553 57.3821C59.0129 59.925 62.6062 61.1965 66.8352 61.1965C71.4512 61.1965 75.0445 59.5795 77.6151 56.3456ZM74.5055 50.1264C73.3722 50.8727 71.9349 51.2458 70.1935 51.2458C68.8668 51.2458 67.775 50.8589 66.9181 50.0849C66.0613 49.2834 65.6328 48.2468 65.6328 46.9754C65.6328 42.6081 68.0652 40.4245 72.93 40.4245H76.9932V47.5973C76.4956 48.5371 75.6664 49.3801 74.5055 50.1264ZM140.429 38.2685C140.429 45.234 138.853 50.8036 135.702 54.9773C132.579 59.1234 128.35 61.1965 123.015 61.1965C118.896 61.1965 115.51 59.6901 112.857 56.6772V77.6151H98.8846V15.5064H111.945L112.359 19.6525C115.041 16.3357 118.565 14.6772 122.932 14.6772C128.46 14.6772 132.758 16.7226 135.826 20.8134C138.894 24.8766 140.429 30.4739 140.429 37.6052V38.2685ZM126.456 37.3979C126.456 29.4373 124.134 25.4571 119.491 25.4571C116.174 25.4571 113.963 26.6456 112.857 29.0227V46.6851C114.073 49.1728 116.312 50.4166 119.574 50.4166C124.024 50.4166 126.318 46.5746 126.456 38.8905V37.3979ZM161.366 61.1965C166.397 61.1965 170.391 59.3031 173.349 55.5163L173.763 60.3673H186.865V15.5064H172.81V46.9754C171.455 49.2695 169.175 50.4166 165.969 50.4166C162.237 50.4166 160.371 48.4956 160.371 44.6535V15.5064H146.399V44.5706C146.399 49.9329 147.657 54.0514 150.172 56.926C152.715 59.773 156.446 61.1965 161.366 61.1965ZM218.044 47.7631C218.044 46.5746 217.422 45.621 216.178 44.9023C214.934 44.1837 212.571 43.4374 209.088 42.6634C205.605 41.8895 202.731 40.8806 200.464 39.6368C198.198 38.3653 196.47 36.8312 195.282 35.0346C194.093 33.2379 193.499 31.1787 193.499 28.8569C193.499 24.7384 195.199 21.3524 198.598 18.6989C201.453 16.4475 205.049 15.1414 209.385 14.7805V4.59161H216.045V14.9134C220.1 15.4057 223.489 16.6675 226.211 18.6989C229.805 21.3801 231.601 24.9043 231.601 29.2715H217.588C217.588 25.6782 215.694 23.8816 211.907 23.8816C210.442 23.8816 209.212 24.2962 208.217 25.1254C207.222 25.927 206.725 26.9359 206.725 28.152C206.725 29.3959 207.333 30.4048 208.549 31.1787C209.765 31.9526 211.7 32.5884 214.354 33.0859C217.035 33.5834 219.384 34.1777 221.402 34.8687C228.146 37.1906 231.518 41.3505 231.518 47.3485C231.518 51.4393 229.694 54.77 226.046 57.3406C223.322 59.2743 219.988 60.4806 216.045 60.9598V71.1894H209.385V61.0887C206.565 60.8454 203.992 60.1903 201.667 59.1234C198.654 57.7414 196.304 55.8618 194.618 53.4847C192.932 51.1076 192.089 48.6062 192.089 45.9803H205.149C205.205 48.0533 205.896 49.5736 207.222 50.541C208.549 51.4808 210.249 51.9507 212.322 51.9507C214.229 51.9507 215.653 51.5637 216.592 50.7898C217.56 50.0158 218.044 49.007 218.044 47.7631ZM254.363 15.5064V4.35341H240.391V15.5064H234.669V25.2083H240.391V47.4729C240.391 52.0889 241.538 55.5302 243.832 57.7967C246.127 60.0632 249.678 61.1965 254.488 61.1965C257.224 61.1965 259.85 60.7957 262.365 59.9941V50.002C261.426 50.1679 260.265 50.2508 258.883 50.2508C257.086 50.2508 255.884 49.9191 255.276 49.2557C254.668 48.5923 254.363 47.4176 254.363 45.7315V25.2083H261.744V15.5064H254.363ZM292.549 60.3673C292.052 59.4551 291.609 58.1146 291.222 56.3456C288.652 59.5795 285.058 61.1965 280.442 61.1965C276.213 61.1965 272.62 59.925 269.663 57.3821C266.705 54.8115 265.226 51.5914 265.226 47.7217C265.226 42.8569 267.023 39.1807 270.616 36.693C274.21 34.2054 279.434 32.9615 286.288 32.9615H290.6V30.5983C290.6 26.4798 288.818 24.4206 285.252 24.4206C281.935 24.4206 280.277 26.0514 280.277 29.313H266.304C266.304 24.9734 268.142 21.4492 271.819 18.7404C275.522 16.0316 280.235 14.6772 285.957 14.6772C291.678 14.6772 296.198 16.0731 299.515 18.8648C302.831 21.6565 304.531 25.4847 304.614 30.3495V50.2093C304.67 54.3278 305.305 57.4788 306.521 59.6624V60.3673H292.549ZM283.801 51.2458C285.542 51.2458 286.98 50.8727 288.113 50.1264C289.274 49.3801 290.103 48.5371 290.6 47.5973V40.4245H286.537C281.672 40.4245 279.24 42.6081 279.24 46.9754C279.24 48.2468 279.669 49.2834 280.525 50.0849C281.382 50.8589 282.474 51.2458 283.801 51.2458Z" fill="black"/>
        </symbol>
        <symbol id="logo-mobile" viewBox="0 0 183 47">
            <path fill-rule="evenodd" clip-rule="evenodd" d="M8.68835 26.5354L12.2528 22.6244L19.9263 36.0406H30.2236L18.045 15.941L30.2236 0H19.4807L11.7082 11.3122L8.68835 15.8915V0H0V36.0406H8.68835V26.5354ZM46.3379 33.6395C46.5689 34.6957 46.833 35.496 47.13 36.0406H55.4718V35.6198C54.7457 34.3161 54.3662 32.4349 54.3332 29.9761V18.1193C54.2836 15.2149 53.2688 12.9294 51.2885 11.2627C49.3083 9.59597 46.6102 8.76261 43.1942 8.76261C39.7783 8.76261 36.9647 9.57122 34.7534 11.1884C32.5586 12.8056 31.4612 14.9096 31.4612 17.5005H39.8031C39.8031 15.5532 40.7932 14.5796 42.7734 14.5796C44.9022 14.5796 45.9666 15.809 45.9666 18.2678V19.6788H43.3923C39.2997 19.6788 36.1808 20.4213 34.0356 21.9065C31.8903 23.3917 30.8177 25.5865 30.8177 28.4909C30.8177 30.8012 31.7005 32.7237 33.4663 34.2584C35.232 35.7765 37.3773 36.5356 39.9021 36.5356C42.6579 36.5356 44.8032 35.5703 46.3379 33.6395ZM44.4814 29.9266C43.8048 30.3721 42.9467 30.5949 41.9071 30.5949C41.115 30.5949 40.4631 30.3639 39.9516 29.9018C39.44 29.4232 39.1842 28.8044 39.1842 28.0453C39.1842 25.438 40.6364 24.1343 43.5408 24.1343H45.9666V28.4166C45.6696 28.9777 45.1745 29.481 44.4814 29.9266ZM83.8389 22.8472C83.8389 27.0057 82.8983 30.3309 81.017 32.8227C79.1523 35.298 76.6275 36.5356 73.4426 36.5356C70.9838 36.5356 68.9623 35.6363 67.3781 33.8376V46.3379H59.0363V9.25768H66.8335L67.081 11.733C68.6817 9.75274 70.7857 8.76261 73.3931 8.76261C76.6935 8.76261 79.2596 9.98377 81.0913 12.4261C82.923 14.8519 83.8389 18.1936 83.8389 22.4511V22.8472ZM75.4971 22.3273C75.4971 17.5747 74.1109 15.1984 71.3386 15.1984C69.3583 15.1984 68.0381 15.908 67.3781 17.3272V27.872C68.1042 29.3572 69.4408 30.0998 71.3881 30.0998C74.0449 30.0998 75.4146 27.806 75.4971 23.2185V22.3273ZM96.3392 36.5356C99.3426 36.5356 101.727 35.4053 103.493 33.1445L103.74 36.0406H111.562V9.25768H103.171V28.0453C102.363 29.415 101.001 30.0998 99.0868 30.0998C96.8591 30.0998 95.7452 28.9529 95.7452 26.6591V9.25768H87.4034V26.6096C87.4034 29.811 88.1542 32.2699 89.6559 33.9861C91.1741 35.6858 93.4019 36.5356 96.3392 36.5356ZM130.177 28.5156C130.177 27.806 129.805 27.2367 129.063 26.8077C128.32 26.3786 126.909 25.933 124.83 25.471C122.751 25.0089 121.035 24.4066 119.681 23.664C118.328 22.9049 117.297 21.989 116.587 20.9164C115.878 19.8438 115.523 18.6144 115.523 17.2282C115.523 14.7694 116.538 12.7479 118.568 11.1637C120.272 9.81955 122.419 9.03976 125.007 8.82431V2.74128H128.983V8.90361C131.404 9.19751 133.428 9.95086 135.053 11.1637C137.198 12.7644 138.271 14.8684 138.271 17.4757H129.905C129.905 15.3304 128.774 14.2578 126.513 14.2578C125.639 14.2578 124.904 14.5053 124.31 15.0004C123.716 15.479 123.419 16.0813 123.419 16.8074C123.419 17.55 123.782 18.1523 124.508 18.6144C125.234 19.0764 126.39 19.456 127.974 19.753C129.574 20.05 130.977 20.4048 132.182 20.8174C136.208 22.2036 138.222 24.6871 138.222 28.2681C138.222 30.7104 137.132 32.6989 134.954 34.2336C133.328 35.388 131.338 36.1083 128.983 36.3943V42.5017H125.007V36.4713C123.324 36.326 121.788 35.9349 120.399 35.298C118.601 34.4729 117.198 33.3507 116.191 31.9316C115.185 30.5124 114.681 29.0189 114.681 27.4512H122.479C122.512 28.6889 122.924 29.5965 123.716 30.1741C124.508 30.7352 125.523 31.0157 126.761 31.0157C127.9 31.0157 128.749 30.7847 129.31 30.3226C129.888 29.8605 130.177 29.2582 130.177 28.5156ZM151.861 9.25768V2.59908H143.519V9.25768H140.103V15.0499H143.519V28.3424C143.519 31.0982 144.204 33.1527 145.573 34.5059C146.943 35.8591 149.063 36.5356 151.935 36.5356C153.569 36.5356 155.136 36.2964 156.638 35.8178V29.8523C156.077 29.9513 155.384 30.0008 154.559 30.0008C153.486 30.0008 152.768 29.8028 152.405 29.4067C152.042 29.0107 151.861 28.3093 151.861 27.3027V15.0499H156.267V9.25768H151.861ZM174.658 36.0406C174.361 35.496 174.097 34.6957 173.866 33.6395C172.331 35.5703 170.186 36.5356 167.43 36.5356C164.905 36.5356 162.76 35.7765 160.994 34.2584C159.229 32.7237 158.346 30.8012 158.346 28.4909C158.346 25.5865 159.419 23.3917 161.564 21.9065C163.709 20.4213 166.828 19.6788 170.92 19.6788H173.495V18.2678C173.495 15.809 172.43 14.5796 170.302 14.5796C168.321 14.5796 167.331 15.5532 167.331 17.5005H158.989C158.989 14.9096 160.087 12.8056 162.282 11.1884C164.493 9.57122 167.307 8.76261 170.722 8.76261C174.138 8.76261 176.836 9.59597 178.817 11.2627C180.797 12.9294 181.812 15.2149 181.861 18.1193V29.9761C181.894 32.4349 182.274 34.3161 183 35.6198V36.0406H174.658ZM169.435 30.5949C170.475 30.5949 171.333 30.3721 172.01 29.9266C172.703 29.481 173.198 28.9777 173.495 28.4166V24.1343H171.069C168.165 24.1343 166.712 25.438 166.712 28.0453C166.712 28.8044 166.968 29.4232 167.48 29.9018C167.991 30.3639 168.643 30.5949 169.435 30.5949Z" fill="black"/>
        </symbol>
        <symbol id="logout" viewBox="0 0 16 16">
            <path d="M9.99998 14H1.99998V1.99998H9.99998V2.99998H12V0H0V16H12V13H10V14H9.99998Z" />
            <path d="M12.293 4.29297L10.8789 5.70702L12.1719 6.99998H7V8.99999H12.1719L10.8789 10.293L12.293 11.707L16 7.99997L12.293 4.29297Z" />
        </symbol >
        <symbol id="miniLogo" viewBox="0 0 90 31">
            <rect x="6" y="5" width="33" height="26" rx="8" fill="#FB7C2F"/>
            <rect width="33" height="26" rx="8" fill="#FB7C2F" fill-opacity="0.2"/>
            <path fill-rule="evenodd" clip-rule="evenodd" d="M23.1335 20.5701L24.419 19.1596L27.1865 23.9982H30.9003L26.508 16.7492L30.9003 11H27.0258L24.2226 15.0798L23.1335 16.7314V11H20V23.9982H23.1335V20.5701ZM37.712 23.1323C37.7953 23.5132 37.8906 23.8018 37.9977 23.9982H41.0062V23.8465C40.7444 23.3763 40.6075 22.6978 40.5956 21.811V17.5348C40.5777 16.4874 40.2117 15.6631 39.4975 15.062C38.7833 14.4608 37.8102 14.1603 36.5782 14.1603C35.3463 14.1603 34.3315 14.4519 33.534 15.0352C32.7425 15.6184 32.3467 16.3772 32.3467 17.3116H35.3552C35.3552 16.6094 35.7123 16.2582 36.4265 16.2582C37.1942 16.2582 37.5781 16.7016 37.5781 17.5884V18.0973H36.6497C35.1737 18.0973 34.0488 18.3651 33.2751 18.9007C32.5014 19.4364 32.1146 20.2279 32.1146 21.2754C32.1146 22.1086 32.433 22.802 33.0698 23.3555C33.7066 23.903 34.4803 24.1768 35.3909 24.1768C36.3848 24.1768 37.1585 23.8286 37.712 23.1323ZM37.0425 21.7932C36.7985 21.9539 36.489 22.0342 36.114 22.0342C35.8283 22.0342 35.5933 21.9509 35.4088 21.7843C35.2243 21.6117 35.132 21.3885 35.132 21.1147C35.132 20.1744 35.6558 19.7042 36.7032 19.7042H37.5781V21.2486C37.471 21.451 37.2924 21.6325 37.0425 21.7932ZM51.237 19.24C51.237 20.7398 50.8977 21.939 50.2193 22.8377C49.5467 23.7304 48.6361 24.1768 47.4875 24.1768C46.6007 24.1768 45.8716 23.8524 45.3003 23.2037V27.712H42.2918V14.3388H45.1039L45.1932 15.2316C45.7705 14.5174 46.5293 14.1603 47.4696 14.1603C48.6599 14.1603 49.5854 14.6007 50.246 15.4815C50.9067 16.3564 51.237 17.5616 51.237 19.0971V19.24ZM48.2285 19.0525C48.2285 17.3384 47.7285 16.4814 46.7287 16.4814C46.0145 16.4814 45.5383 16.7373 45.3003 17.2492V21.0522C45.5622 21.5879 46.0442 21.8557 46.7465 21.8557C47.7047 21.8557 48.1987 21.0284 48.2285 19.3739V19.0525ZM56.7453 24.1768C57.8285 24.1768 58.6885 23.7691 59.3253 22.9537L59.4146 23.9982H62.2356V14.3388H59.2093V21.1147C58.9176 21.6087 58.4266 21.8557 57.7362 21.8557C56.9328 21.8557 56.531 21.442 56.531 20.6148V14.3388H53.5225V20.5969C53.5225 21.7515 53.7933 22.6383 54.3349 23.2573C54.8825 23.8703 55.6859 24.1768 56.7453 24.1768ZM68.949 21.2843C68.949 21.0284 68.8151 20.8231 68.5473 20.6683C68.2794 20.5136 67.7706 20.3529 67.0207 20.1863C66.2708 20.0196 65.6518 19.8024 65.1638 19.5346C64.6758 19.2608 64.3038 18.9305 64.0479 18.5436C63.792 18.1568 63.664 17.7134 63.664 17.2134C63.664 16.3267 64.03 15.5976 64.7621 15.0262C65.3768 14.5415 66.1509 14.2603 67.0845 14.1825V11.9887H68.5185V14.2111C69.3917 14.3171 70.1215 14.5888 70.7077 15.0262C71.4814 15.6035 71.8683 16.3624 71.8683 17.3027H68.8508C68.8508 16.529 68.4431 16.1422 67.6278 16.1422C67.3123 16.1422 67.0475 16.2314 66.8332 16.41C66.619 16.5826 66.5118 16.7998 66.5118 17.0617C66.5118 17.3295 66.6428 17.5467 66.9046 17.7134C67.1665 17.88 67.5831 18.0169 68.1545 18.124C68.7318 18.2312 69.2377 18.3591 69.6721 18.5079C71.1243 19.0078 71.8504 19.9036 71.8504 21.195C71.8504 22.0759 71.4576 22.793 70.672 23.3465C70.0855 23.7629 69.3676 24.0227 68.5185 24.1258V26.3284H67.0845V24.1536C66.4774 24.1012 65.9234 23.9601 65.4227 23.7304C64.774 23.4328 64.2681 23.0281 63.905 22.5163C63.542 22.0045 63.3605 21.4658 63.3605 20.9004H66.1726C66.1845 21.3468 66.3333 21.6742 66.619 21.8825C66.9046 22.0848 67.2707 22.186 67.717 22.186C68.1277 22.186 68.4342 22.1027 68.6365 21.936C68.8449 21.7694 68.949 21.5521 68.949 21.2843ZM77.7694 14.3388V11.9374H74.7609V14.3388H73.5289V16.4278H74.7609V21.2218C74.7609 22.2157 75.0078 22.9567 75.5018 23.4447C75.9958 23.9328 76.7606 24.1768 77.7962 24.1768C78.3854 24.1768 78.9508 24.0905 79.4924 23.9179V21.7664C79.29 21.8021 79.04 21.82 78.7425 21.82C78.3556 21.82 78.0967 21.7485 77.9658 21.6057C77.8348 21.4629 77.7694 21.2099 77.7694 20.8469V16.4278H79.3584V14.3388H77.7694ZM86.9915 23.9982C86.8843 23.8018 86.7891 23.5132 86.7058 23.1323C86.1523 23.8286 85.3786 24.1768 84.3847 24.1768C83.4741 24.1768 82.7004 23.903 82.0636 23.3555C81.4268 22.802 81.1083 22.1086 81.1083 21.2754C81.1083 20.2279 81.4952 19.4364 82.2689 18.9007C83.0426 18.3651 84.1675 18.0973 85.6434 18.0973H86.5719V17.5884C86.5719 16.7016 86.188 16.2582 85.4203 16.2582C84.7061 16.2582 84.349 16.6094 84.349 17.3116H81.3405C81.3405 16.3772 81.7362 15.6184 82.5278 15.0352C83.3253 14.4519 84.34 14.1603 85.572 14.1603C86.804 14.1603 87.7771 14.4608 88.4913 15.062C89.2055 15.6631 89.5715 16.4874 89.5893 17.5348V21.811C89.6012 22.6978 89.7381 23.3763 90 23.8465V23.9982H86.9915ZM85.1078 22.0342C85.4827 22.0342 85.7922 21.9539 86.0362 21.7932C86.2862 21.6325 86.4648 21.451 86.5719 21.2486V19.7042H85.697C84.6495 19.7042 84.1258 20.1744 84.1258 21.1147C84.1258 21.3885 84.218 21.6117 84.4025 21.7843C84.587 21.9509 84.8221 22.0342 85.1078 22.0342Z" fill="black"/>
        </symbol >
        <symbol id="leftArrow" viewBox="0 0 7 12">
            <path d="M6 1L2 6L6 11" stroke="#FF751D" stroke-width="2"/>
        </symbol>
        <symbol id="rightArrow" viewBox="0 0 7 12">
            <path d="M1 1L5 6L1 11" stroke="#FF751D" stroke-width="2"/>
        </symbol>
    </defs>
</svg>